# xmcd CD database file
#
# Track frame offsets:
#	150
#	14437
#	27727
#	41335
#	51450
#	69887
#	81765
#	94130
#	106467
#	123429
#	135212
#	148932
#
# Disc length: 2171 seconds
#
# Revision: 1
# Processed by: cddbd v1.5.2PL0 Copyright (c) Steve Scherf et al.
# Submitted via: jetAudio 7
#
DISCID=a408790c
DTITLE=Boots Randolph - 36 All-Time Favorites  Disc 3
DYEAR=1900
DGENRE=Jazz
TTITLE0=The Shadow Of Your Smile
TTITLE1=What Now My Love
TTITLE2=Days Of Wine And Roses
TTITLE3=Yesterday
TTITLE4=You've Lost That Lovin' Feeling
TTITLE5=What Kind Of Fool Am I
TTITLE6=Moon River
TTITLE7=Michelle
TTITLE8=Stranger On The Shore
TTITLE9=I Left My Heart In San Francisco
TTITLE10=Dear Hearts And Gentle People
TTITLE11=Unchained Melody
EXTD=
EXTT0=
EXTT1=
EXTT2=
EXTT3=
EXTT4=
EXTT5=
EXTT6=
EXTT7=
EXTT8=
EXTT9=
EXTT10=
EXTT11=
PLAYORDER=
